<?xml version="1.0" encoding="utf-8"?>
<!-- Generator: Adobe Illustrator 23.0.0, SVG Export Plug-In . SVG Version: 6.00 Build 0)  -->
<svg version="1.1" id="Слой_1" xmlns="http://www.w3.org/2000/svg" xmlns:xlink="http://www.w3.org/1999/xlink" x="0px" y="0px"
	 viewBox="0 0 198.6 170.99" style="enable-background:new 0 0 198.6 170.99;" xml:space="preserve">
<g>
	<path d="M85.22,113.82c-2.12,1-4.14,2.48-6.37,2.91c-17.51,3.38-33.97-6.63-39.69-23.68c-5.25-15.63,1.15-32.92,12.56-40.86
		c2.6-1.81,3.32-3.82,3.44-6.95C55.92,24.58,71.18,7.67,94.69,9.87c6.43,0.6,13.1,3.21,17.35,8.63c4.04,5.15,9.12,7.04,15.25,8.03
		c29.92,4.8,47.04,42.57,25.88,70.7c-7.27,9.67-17.43,14.31-28.83,16.48c-3.26,0.62-6.91-0.17-10.24-0.95
		c-1.23-0.29-2.04-2.39-3.04-3.67c1.42-0.87,3.04-2.7,4.25-2.45c18.37,3.7,37.6-11.44,40.34-29.8c2.96-19.82-6.32-36.94-25.36-43.36
		c-2.72-0.92-5.83-1.54-8.62-1.2c-4.78,0.58-7.35-1.58-10.06-5.11c-9.07-11.85-20.41-12.81-31.92-9.29
		c-10.38,3.18-17.8,14.74-17.86,26.24c-0.01,1.66-0.01,3.32,0.05,4.98c0.1,2.6-0.52,4.09-3.23,5.74
		c-14.08,8.61-17.07,21.35-14.08,34.79c2.93,13.13,15.28,21.95,28.52,21.59c1.77-0.05,3.52-0.86,5.29-0.85c2.2,0,4.4,0.47,6.6,0.74
		C85.07,112.01,85.14,112.92,85.22,113.82z"/>
	<path d="M59.6,72.34c4.93-5.86,11.71-5.04,21.13,1.28c3.67-2.5,6.99-5.03,10.6-7.04c0.97-0.54,2.83,0.51,4.28,0.82
		c-0.76,1.37-1.24,3.04-2.33,4.03c-2.24,2.03-4.82,3.7-7.23,5.49c7.94,11.4,17.61,17.16,29.64,3.98
		c-2.08-8.01-5.49-15.4-11.57-21.36c-2.59-2.54-2.78-4.76,1.04-7.09c8.97,6.02,12.92,15.49,16.48,25.41
		c3.77-0.85,7.52-2.11,11.33-2.36c1.84-0.12,4.04,1.38,5.54,2.75c0.39,0.35-0.91,3.43-2.12,4.37c-0.93,0.73-2.94,0-4.47,0.03
		c-11.19,0.19-24.35,9.01-24.83,25.57c-0.41,14.08,0.81,28.2,1.34,43.14c-3.74,0-8.66,0.11-13.55-0.14c-0.59-0.03-1.59-1.98-1.55-3
		c0.55-13.6,1.49-27.19,1.86-40.8c0.39-14.57-15.54-31.52-30.06-32.69C63.4,74.6,61.77,73.32,59.6,72.34z"/>
	<path d="M110.56,155.57c3.74-6.82,6.21-12.09,9.45-16.85c1.24-1.83,4.21-2.52,6.43-3.63c3.19-1.59,6.67-2.71,9.58-4.69
		c7.05-4.8,14.56-1.9,18.55,4c1.93,2.85,4.45,5.43,7.14,7.59c3.55,2.84,5.95,7.46,3.72,11.47c-1.12,2-4.97,3.15-7.73,3.46
		c-9.1,1.01-18.27,2.02-27.41,1.93C124.15,158.79,118.01,156.88,110.56,155.57z M135.69,143.22c0.76,0.85,1.03,1.33,1.44,1.56
		c0.41,0.22,1.04,0.4,1.43,0.24c5.44-2.27,8.25,0.29,9.87,5.23c1.04,3.16,3.38,4.3,6.54,3.78c2.22-0.36,4.41-0.9,7.34-1.5
		c-0.76-2.05-1.02-4.07-2.11-5.44c-2.68-3.4-6.25-6.18-8.5-9.8c-2.9-4.67-6.52-5.94-11.66-4.81
		C139.16,136.44,141.72,141.56,135.69,143.22z M126.77,154.18c-1.32-3.36-3.96-6.84-3.44-9.77c0.42-2.39,4.6-4.12,7.12-6.15
		c0.29,0.38,0.59,0.75,0.88,1.13c-1.5,2.77-3,5.54-4.66,8.59c3.63,1.51,7.27,2.05,9.37,4.13c3.18,3.16,6.38,3.22,11.48,2.5
		c-2.4-2.62-3.86-5.17-6.06-6.36c-2.41-1.31-5.49-1.37-8.18-1.95c0.87-3.45,1.64-6.49,2.31-9.13c-11.64-1.27-14.93,7.52-18.66,15.98
		C120.33,153.52,124.06,153.9,126.77,154.18z"/>
	<path d="M81.76,150.19c2.13-1.41,4.14-2.74,6.17-4.08c2.08,5.78,1.38,7.31-4.46,10.06c-3.59,1.69-6.41-0.18-9.89-6.81
		c-2.46,1.66-4.99,3.2-7.33,4.98c-4.78,3.64-6.1,3.62-10.24-0.8c-1.22-1.3-2.23-2.79-3.19-4.01c-3.57,2.33-6.96,4.89-10.7,6.74
		c-1.07,0.53-3.16-1.01-4.79-1.61c0.7-1.23,1.12-2.83,2.16-3.62c3.1-2.36,6.38-4.52,9.71-6.55c3.57-2.16,6.73-2.04,9.03,2.09
		c1.71,3.06,3.77,5.14,6.78,1.06c0.54-0.73,1.65-1.01,2.46-1.56c6.79-4.62,7.1-4.56,12.05,2.01
		C80.11,148.86,80.95,149.43,81.76,150.19z"/>
</g>
</svg>
