<?xml version="1.0" encoding="utf-8"?>
<!-- Generator: Adobe Illustrator 23.0.0, SVG Export Plug-In . SVG Version: 6.00 Build 0)  -->
<svg version="1.1" id="Слой_1" xmlns="http://www.w3.org/2000/svg" xmlns:xlink="http://www.w3.org/1999/xlink" x="0px" y="0px"
	 viewBox="0 0 595.28 504.2" style="enable-background:new 0 0 595.28 504.2;" xml:space="preserve">
<g>
	<path d="M283.34,456.97c0-25.45,0.66-49.34-0.46-73.15c-0.28-5.93-5.56-12.24-9.83-17.27c-13.15-15.47-25.68-27.15-50.09-29.25
		c-46.61-4-90.9-24.39-103.44-85.86c-3.13-15.35-4.11-31.13-6.14-47.14c32.48-3.93,60.96-0.42,87.77,10.29
		c30.97,12.38,47.13,37.87,53.6,69.89c1.54,7.63,4.81,15.71,3.56,22.94c-3.72,21.41,7.98,33.38,25.09,45.48
		c0-34.68,1.29-67.81-0.45-100.77c-1.18-22.23-23.45-42.14-47.1-45.33c-29.26-3.95-48.26-19.38-55.56-48
		c-2.86-11.2-4.09-22.85-5.52-34.36c-1.12-8.97,3.33-14.61,12.49-14.01c42,2.78,74.03,10.64,77.6,70.57
		c0.84,14.02,5.56,24.99,18.3,34.22c0-16.85-0.68-32.72,0.18-48.51c1-18.25,1.69-35.08-5.6-53.62c-10.63-27.04,3.39-54.4,29.71-67.2
		c15.53-7.55,32.64-11.77,48.57-18.61c9.32-4,12.14,0.36,15.08,7.63c9.75,24.07-0.83,66.72-22.21,81.36
		c-12.22,8.37-26.79,13.22-39.83,20.5c-3.78,2.11-8.38,7.08-8.46,10.82c-0.66,32.66-0.38,65.33-0.38,97.76
		c9.13-0.9,16.46-10.52,17.59-24.2c1.12-13.56,2.22-27.34,5.55-40.45c10.13-39.88,31.76-52.13,75.95-53.99
		c37.84-1.59,35.66-5.46,31.21,35.64c-3.3,30.46-11.1,58.56-43.18,69.91c-15.26,5.4-32.52,4.88-48.62,8.25
		c-6.26,1.31-13,4.8-17.5,9.31c-18.83,18.86-26.75,41.41-24.29,68.66c2.01,22.29,0.41,44.91,0.41,67.64
		c1.55,0.37,3.61,1.4,4.11,0.89c15.2-15.25,33.04-28.73,34.02-53.22c2.17-54.38,35.07-79.84,78.11-82.4
		c10.19-0.61,20.34-2.94,30.49-2.87c3.55,0.02,9.23,4.18,10.28,7.58c10.83,34.91-15.02,85.64-50.81,97.53
		c-15.94,5.3-33.38,5.92-49.93,9.6c-6.49,1.44-14.2,3.91-18.27,8.59c-12.7,14.62-26.05,29.42-34.91,46.36
		c-5.05,9.64-2.17,23.61-1.82,35.6c0.03,1.12,7.64,2.84,11.73,2.87c34.26,0.24,68.53,0.03,102.79,0.25
		c6.4,0.04,12.79,1.43,19.19,2.2c0.37,1.94,0.74,3.87,1.12,5.81c-4.94,2.11-9.87,6.04-14.82,6.07c-84.2,0.38-168.4,0.37-252.59-0.05
		c-4.09-0.02-8.17-4.6-12.25-7.06c3.9-2.3,7.77-6.54,11.71-6.6c34.26-0.53,68.52-0.31,102.79-0.32
		C273,456.97,277.74,456.97,283.34,456.97z M242.63,304.18c-5.19-73.11-56.37-87.99-112-86c-5.75,62.61,39.76,105.94,105.9,105.36
		c-10.41-18.81-24.88-32.38-43.04-42.73c-3.72-2.12-5.34-7.92-7.92-12.03c4.73-0.07,9.57-0.78,14.15,0.01
		c3.14,0.54,6.28,2.75,8.8,4.94C219.69,283.46,230.65,293.44,242.63,304.18z M350.01,326.7c10.05-6.88,19.46-14.2,29.78-19.89
		c3.39-1.87,9.11,0.48,13.76,0.89c-2.54,3.57-4.53,7.76-7.72,10.61c-10.17,9.11-20.78,17.73-31.23,26.53
		c67.6,2.15,90.2-34.49,83.44-81.32C368.43,272.66,357.77,280.26,350.01,326.7z M416.97,141.75c-50.25-1.5-80.91,5.04-83.43,69.09
		c12.61-11.28,24.38-21.81,35.8-32.02c11.96,5.52,8.47,11.43,2.3,17.06c-9.15,8.34-18.58,16.37-27.89,24.53
		C388.04,226.07,418.15,211.63,416.97,141.75z M307.25,122.09c40.9-11.94,57.45-38.33,51.29-78.6
		c-18.91-1.89-52.33,13.3-61.94,29.37c-6.61,11.04-10.29,23.18-4.31,37.15c6.02-7.33,10.52-13.56,15.89-18.92
		c1.76-1.75,7.48-2.62,8.41-1.47c1.98,2.45,3.58,7.08,2.55,9.73C316.31,106.57,312.04,113.21,307.25,122.09z M238.73,191.29
		c-14.65-23.69-14.65-23.69-8.57-31.01c6.57,5.91,13.15,11.82,20.68,18.6c-5.3-40.45-27.31-58.8-59.26-50.99
		C193.49,172.7,208.82,193.3,238.73,191.29z"/>
</g>
</svg>
