<?xml version="1.0" encoding="utf-8"?>
<!-- Generator: Adobe Illustrator 23.0.0, SVG Export Plug-In . SVG Version: 6.00 Build 0)  -->
<svg version="1.1" id="Слой_1" xmlns="http://www.w3.org/2000/svg" xmlns:xlink="http://www.w3.org/1999/xlink" x="0px" y="0px"
	 viewBox="0 0 201.82 169.89" style="enable-background:new 0 0 201.82 169.89;" xml:space="preserve">
<g>
	<path d="M52.38,85.21c3.87,1.45,7.93,2.53,11.56,4.43c9.49,4.98,18.83,0.54,28.13-0.28c12.36-1.09,24.62-3.18,36.92-4.93
		c5.2-0.74,10.34-1.94,15.55-2.47c1.81-0.19,3.77,1.01,5.66,1.57c-1.39,1.23-2.64,3.26-4.2,3.55c-8.9,1.63-17.86,2.95-26.83,4.16
		c-11.56,1.57-23.15,2.94-35.09,5.55c4.32,1.59,8.64,3.16,12.95,4.76c11.23,4.18,22.43,8.47,33.71,12.51
		c3.57,1.28,4.72,3.75,4.8,7.11c0.08,3.49-0.03,6.99,0.07,10.49c0.12,3.72-1.3,5.39-5.29,5.32c-10.66-0.18-21.32-0.01-31.98-0.01
		c-27.32,0-54.64,0.02-81.96-0.07c-1.85-0.01-3.69-0.83-5.54-1.28c0.52-2.09,0.79-4.29,1.6-6.26c2.96-7.21,6.11-14.35,9.16-21.53
		c3.68-8.66,7.27-17.35,11.1-25.94c0.47-1.05,2.14-2.08,3.34-2.2c8.49-0.82,17.07-0.95,25.51-2.14
		c26.48-3.74,52.91-7.86,79.37-11.82c0.98-0.15,2.07-0.34,2.97-0.07c1.08,0.33,2.02,1.14,3.01,1.75c-0.75,1.05-1.35,2.84-2.29,3.04
		c-5.63,1.19-11.32,2.09-17.02,2.95c-19.42,2.95-38.84,5.88-58.27,8.74c-5.7,0.84-11.45,1.43-17.17,2.13
		C52.24,84.59,52.31,84.9,52.38,85.21z M130.48,131.32c0-2.86-0.17-5.32,0.04-7.75c0.26-3.09-0.57-4.75-3.91-5.67
		c-5.23-1.43-10.23-3.65-15.35-5.5c-15.56-5.62-31.13-11.22-46.7-16.82c-7.75-2.79-15.51-5.56-23.26-8.36
		c-3.17-1.14-5.03-0.71-6.33,3.03c-2.15,6.23-5.14,12.17-7.73,18.25c-3.16,7.43-6.28,14.87-9.63,22.81
		C55.45,131.32,92.54,131.32,130.48,131.32z"/>
	<path d="M155.89,116.39c9.95-13.54,19.84-26.99,29.89-40.68c-6.94-10.26-13.68-20.5-20.72-30.53c-7.9-11.26-8.02-11.16-21.23-7
		c-9.76,3.07-19.49,6.28-29.33,9.04c-3.87,1.09-5.72,2.8-5,6.89c0.2,1.13,0.31,2.43-0.07,3.46c-0.33,0.89-1.34,1.93-2.19,2.07
		c-0.59,0.1-1.99-1.16-2.05-1.89c-0.26-3.46-0.55-6.99-0.06-10.39c0.21-1.49,2-3.47,3.49-3.95c16.04-5.2,32.14-10.2,48.3-15.02
		c1.19-0.36,3.54,0.67,4.31,1.78c9.55,13.75,18.87,27.66,28.35,41.46c2.16,3.15,2.01,5.48-0.42,8.68
		c-9.6,12.62-18.82,25.53-28.18,38.33c-2.15,2.95-4.93,3.7-8.31,2.44c-11.68-4.34-23.39-8.62-35.02-13.11
		c-1.21-0.47-1.94-2.19-2.9-3.34c1.57-0.37,3.37-1.45,4.66-1.01C131.47,107.67,143.45,111.99,155.89,116.39z"/>
	<path d="M122.02,96.92c9.76-0.29,17.76,6.34,27.88,7.79c-0.55-2.46-1.24-4.58-1.4-6.74c-0.08-1.08,0.8-2.22,1.24-3.34
		c1.04,0.61,2.51,0.97,3.04,1.88c1.22,2.08,1.99,4.43,3.24,7.39c6.18-8.46,11.97-16.37,18.54-25.36c-2.85,0-4.54,0.39-5.93-0.1
		c-1.57-0.55-2.85-1.9-4.26-2.9c1.42-0.92,2.73-2.2,4.29-2.66c1.77-0.52,3.76-0.3,6.17-0.43c-5.95-8.74-11.48-16.87-17.4-25.57
		c-0.74,2.41-0.98,4.03-1.74,5.35c-0.54,0.94-1.79,1.48-2.73,2.2c-0.71-1.16-2.03-2.32-2.01-3.47c0.04-2.01,0.9-4,1.61-6.79
		c-11.05,3.48-21.45,6.54-31.63,10.2c-1.52,0.55-1.96,3.95-3.01,5.98c-0.57,1.1-1.37,2.09-2.06,3.13c-0.76-1.07-2.06-2.09-2.18-3.23
		c-0.3-3.09-0.1-6.23-0.1-9.45c13.31-4.22,26.11-8.18,38.84-12.38c3.22-1.06,5.16-1.11,7.3,2.2c7,10.87,14.54,21.39,21.63,32.2
		c0.85,1.29,0.99,4.1,0.15,5.28c-7.97,11.22-16.18,22.27-24.5,33.23c-0.63,0.83-2.8,1.22-3.92,0.84
		c-9.39-3.15-18.74-6.44-28.02-9.94c-1.58-0.6-2.73-2.35-4.08-3.56C121.33,98.1,121.67,97.51,122.02,96.92z"/>
	<path d="M42.69,98.26c-1.47,3.57-2.85,7.03-4.32,10.44c-2.55,5.9-5.04,11.82-7.84,17.59c-0.51,1.05-2.41,1.43-3.67,2.11
		c-0.14-1.39-0.79-2.98-0.35-4.15c3.64-9.55,7.58-18.98,11.22-28.53c1.39-3.64,3.59-3.62,6.68-2.58
		c13.47,4.53,26.98,8.92,40.46,13.43c12.85,4.3,25.7,8.61,38.47,13.14c1.4,0.5,2.3,2.42,3.44,3.69c-1.66,0.51-3.57,1.81-4.95,1.39
		c-9.46-2.92-18.81-6.22-28.2-9.38C76.87,109.76,60.11,104.12,42.69,98.26z"/>
</g>
</svg>
