<?xml version="1.0" encoding="utf-8"?>
<!-- Generator: Adobe Illustrator 23.0.0, SVG Export Plug-In . SVG Version: 6.00 Build 0)  -->
<svg version="1.1" id="Слой_1" xmlns="http://www.w3.org/2000/svg" xmlns:xlink="http://www.w3.org/1999/xlink" x="0px" y="0px"
	 viewBox="0 0 200.8 169.55" style="enable-background:new 0 0 200.8 169.55;" xml:space="preserve">
<g>
	<path d="M58.41,123.16c-28.97-35.24-17.25-77.35,8.52-97.33c26.34-20.42,65.21-17.66,88.23,6.6c23.7,24.97,24.48,64.11,1.93,89.47
		c-22.31,25.09-62.68,31.93-94.54,5.14c-8.39,8.59-16.84,17.24-25.3,25.89c-1.05,1.07-1.97,2.5-3.25,3.05
		c-1.42,0.61-3.18,0.39-4.8,0.53c0.15-1.71-0.36-4.05,0.57-5.04c6.15-6.55,12.58-12.84,18.97-19.16
		C51.91,129.17,55.22,126.17,58.41,123.16z M107.21,137.76c32.74,0.2,59.56-26.16,59.87-58.84c0.31-33.04-26.18-60.22-58.89-60.4
		c-33.21-0.19-60.03,26.01-60.31,58.91C47.59,110.84,73.86,137.56,107.21,137.76z"/>
	<path d="M110.93,46.09c0,2.14,0.32,4.35-0.13,6.4c-0.25,1.12-1.92,2.82-2.74,2.71c-1.26-0.18-3.23-1.6-3.33-2.64
		c-0.4-4.42-0.43-8.9-0.1-13.32c0.08-1.12,2-2.89,3.1-2.91c1.06-0.03,2.83,1.67,3.11,2.88c0.51,2.19,0.14,4.58,0.14,6.89
		C110.98,46.09,110.96,46.09,110.93,46.09z"/>
	<path d="M110.95,112.33c0,2.15,0.33,4.38-0.13,6.43c-0.26,1.14-1.97,2.87-2.78,2.74c-1.27-0.2-3.23-1.66-3.32-2.73
		c-0.4-4.44-0.43-8.95-0.08-13.39c0.09-1.14,2.03-2.95,3.13-2.97c1.07-0.01,2.82,1.74,3.11,2.99c0.51,2.2,0.14,4.61,0.14,6.92
		C110.99,112.33,110.97,112.33,110.95,112.33z"/>
	<path d="M110.94,78.93c0,2.16,0.38,4.43-0.14,6.46c-0.31,1.21-1.93,2.63-3.17,2.87c-0.81,0.16-2.8-1.56-2.88-2.55
		c-0.36-4.47-0.44-8.99-0.1-13.46c0.08-1.1,2.11-2.86,3.21-2.83c1.08,0.03,2.72,1.79,3.04,3.06c0.51,2.04,0.14,4.3,0.14,6.46
		C111.01,78.93,110.97,78.93,110.94,78.93z"/>
	<path d="M97.73,95.86c0,1.98,0.37,4.06-0.13,5.9c-0.35,1.3-1.87,2.29-2.86,3.42c-1.13-1.01-3.14-1.94-3.24-3.04
		c-0.38-4.44-0.39-8.94-0.03-13.38c0.09-1.13,2.04-2.1,3.14-3.15c1.03,1.11,2.68,2.08,2.96,3.35c0.49,2.2,0.14,4.59,0.14,6.9
		C97.71,95.86,97.72,95.86,97.73,95.86z"/>
	<path d="M97.72,62.32c0,2.14,0.36,4.37-0.13,6.4c-0.31,1.28-1.88,2.26-2.89,3.38c-1.12-1.03-3.12-1.98-3.22-3.09
		c-0.38-4.44-0.38-8.94-0.01-13.38c0.09-1.1,2.1-2.87,3.19-2.84c1.05,0.03,2.62,1.85,2.93,3.13C98.08,57.94,97.72,60.17,97.72,62.32
		z"/>
	<path d="M124.18,62.25c0,2.31,0.38,4.72-0.15,6.9c-0.29,1.18-2.05,2.46-3.35,2.74c-0.67,0.14-2.49-1.77-2.57-2.84
		c-0.33-4.43-0.41-8.92-0.09-13.34c0.08-1.13,2.01-2.13,3.08-3.19c1.04,1.09,2.68,2.04,3,3.31c0.51,2.02,0.14,4.27,0.14,6.42
		C124.21,62.25,124.19,62.25,124.18,62.25z"/>
	<path d="M124.23,95.17c0,2.15,0.41,4.42-0.14,6.41c-0.39,1.39-2.1,2.42-3.21,3.61c-0.98-1.13-2.69-2.2-2.8-3.41
		c-0.38-4.26-0.43-8.59-0.09-12.86c0.09-1.19,1.93-2.24,2.97-3.36c1.09,1.21,2.72,2.27,3.15,3.68
		C124.64,91.07,124.23,93.18,124.23,95.17z"/>
	<path d="M71.28,62.39c0,2.15,0.37,4.39-0.14,6.41c-0.32,1.27-1.97,2.2-3.02,3.28c-1.03-1.05-2.86-2.04-2.96-3.17
		c-0.37-4.26-0.42-8.59-0.04-12.85c0.11-1.25,2.06-2.34,3.17-3.5c1.01,1.29,2.51,2.45,2.91,3.91c0.51,1.84,0.12,3.93,0.12,5.91
		C71.31,62.39,71.3,62.39,71.28,62.39z"/>
	<path d="M64.97,95.65c0-2.15-0.4-4.4,0.14-6.41c0.37-1.39,2.04-2.43,3.12-3.62c1.02,1.11,2.83,2.16,2.93,3.36
		c0.35,4.27,0.35,8.61-0.02,12.87c-0.1,1.19-1.92,2.23-2.94,3.33c-1.08-1.2-2.69-2.23-3.1-3.63C64.56,99.73,64.97,97.63,64.97,95.65
		z"/>
	<path d="M84.38,112.29c0,2.14,0.39,4.38-0.14,6.38c-0.32,1.2-1.96,2.55-3.22,2.81c-0.73,0.15-2.62-1.7-2.69-2.74
		c-0.32-4.43-0.37-8.9-0.03-13.33c0.09-1.15,1.94-2.16,2.99-3.23c1.03,1.06,2.67,1.98,2.94,3.21c0.48,2.2,0.14,4.58,0.14,6.89
		C84.36,112.29,84.37,112.29,84.38,112.29z"/>
	<path d="M137.33,112.34c0,2.14,0.32,4.36-0.13,6.4c-0.25,1.14-1.99,2.93-2.68,2.78c-1.26-0.29-3.11-1.74-3.19-2.82
		c-0.33-4.59-0.27-9.24,0.06-13.83c0.07-0.96,1.9-2.52,2.89-2.5c1.02,0.02,2.69,1.51,2.88,2.58c0.44,2.39,0.14,4.92,0.14,7.39
		C137.32,112.34,137.33,112.34,137.33,112.34z"/>
	<path d="M150.51,62.34c0,2.14,0.34,4.36-0.13,6.4c-0.29,1.27-1.82,2.25-2.79,3.36c-1.1-1.03-3.06-1.98-3.15-3.09
		c-0.37-4.42-0.37-8.91-0.01-13.33c0.09-1.09,2.05-2.03,3.15-3.04c0.98,1.09,2.52,2.06,2.82,3.31c0.47,2.03,0.13,4.25,0.13,6.4
		C150.53,62.34,150.52,62.34,150.51,62.34z"/>
	<path d="M144.27,95.48c-0.01-1.98-0.39-4.06,0.12-5.91c0.39-1.44,1.89-2.58,2.89-3.86c1.09,1.32,2.97,2.55,3.13,3.97
		c0.43,3.91,0.4,7.92,0,11.83c-0.13,1.3-1.95,2.43-2.99,3.64c-1.05-1.25-2.6-2.35-3.01-3.78C143.88,99.55,144.27,97.46,144.27,95.48
		z"/>
	<path d="M78.18,45.44c0-2.16-0.39-4.43,0.15-6.44c0.32-1.17,2.04-2.45,3.32-2.69c0.7-0.13,2.51,1.73,2.58,2.78
		c0.3,4.46,0.3,8.97,0,13.44c-0.07,1-1.97,2.79-2.71,2.64c-1.24-0.25-2.91-1.61-3.18-2.78C77.82,50.17,78.18,47.77,78.18,45.44z"/>
	<path d="M131.25,45.71c0-2.33-0.31-4.72,0.14-6.96c0.21-1.05,1.91-2.52,2.91-2.5c1.03,0.02,2.83,1.57,2.89,2.54
		c0.3,4.64,0.29,9.31-0.02,13.95c-0.06,0.94-1.91,2.46-2.92,2.45c-1.01-0.01-2.67-1.47-2.88-2.52c-0.45-2.24-0.14-4.63-0.14-6.96
		C131.23,45.71,131.24,45.71,131.25,45.71z"/>
	<path d="M78.16,78.61c0-2.16-0.39-4.42,0.15-6.43c0.32-1.2,1.97-2.52,3.24-2.8c0.7-0.15,2.6,1.67,2.67,2.69
		c0.3,4.46,0.34,8.96-0.01,13.42c-0.08,1.05-1.94,2.5-3.17,2.72c-0.76,0.14-2.5-1.57-2.71-2.65c-0.43-2.24-0.13-4.62-0.13-6.94
		C78.19,78.61,78.17,78.61,78.16,78.61z"/>
	<path d="M137.36,78.77c0,2.16,0.35,4.4-0.13,6.44c-0.29,1.23-1.9,2.15-2.91,3.21c-1.04-1.03-2.89-1.99-2.98-3.09
		c-0.35-4.29-0.35-8.64-0.01-12.93c0.09-1.15,1.88-2.17,2.89-3.25c1.05,1.05,2.72,1.94,3.03,3.17c0.51,2.03,0.14,4.28,0.14,6.44
		C137.37,78.77,137.37,78.77,137.36,78.77z"/>
	<path d="M91.27,28.54c2.33-0.56,4.06-0.98,6.45-1.55c0,2.9,0.39,5.52-0.14,7.93c-0.34,1.53-2.04,2.76-3.13,4.13
		c-1.06-1.44-2.58-2.74-3.06-4.34C90.86,32.92,91.27,30.84,91.27,28.54z"/>
	<path d="M97.71,130.59c-2.32-0.53-4.2-0.96-6.44-1.47c0-2.12-0.4-4.19,0.12-6c0.46-1.61,1.94-2.93,2.97-4.39
		c1.11,1.35,2.84,2.56,3.2,4.09C98.12,125.13,97.71,127.65,97.71,130.59z"/>
	<path d="M117.81,130.26c0-2.97-0.33-5.62,0.14-8.13c0.23-1.27,1.89-2.28,2.9-3.41c1.13,1.15,3,2.15,3.26,3.47
		C125.33,128.46,124.46,129.5,117.81,130.26z"/>
	<path d="M117.83,26.9c2.61,0.73,4.32,1.2,6.42,1.79c0,2.23,0.38,4.44-0.13,6.43c-0.38,1.46-1.91,2.63-2.94,3.93
		c-1.12-1.36-2.84-2.57-3.21-4.11C117.42,32.62,117.83,30.1,117.83,26.9z"/>
	<path d="M57.32,69.91c1.36,6,1.21,12.01,0.04,18.03c-0.55,0-1.1,0-1.65,0.01c0-5.96,0-11.92,0-17.89
		C56.25,70.01,56.79,69.96,57.32,69.91z"/>
	<path d="M160,87.76c-3.32-3.94-3.19-14.48,0-18.67C160,75.92,160,81.84,160,87.76z"/>
</g>
</svg>
