<?xml version="1.0" encoding="utf-8"?>
<!-- Generator: Adobe Illustrator 23.0.0, SVG Export Plug-In . SVG Version: 6.00 Build 0)  -->
<svg version="1.1" id="Слой_1" xmlns="http://www.w3.org/2000/svg" xmlns:xlink="http://www.w3.org/1999/xlink" x="0px" y="0px"
	 viewBox="0 0 200.29 172.31" style="enable-background:new 0 0 200.29 172.31;" xml:space="preserve">
<g>
	<path d="M74.92,131.25c-2.4,6.52-6.46,11.02-13.28,12.01c-8.25,1.2-14.95-0.98-18.63-9.39c-0.57-1.29-2.92-2.4-4.53-2.53
		c-8.72-0.66-13.81-6.3-13.56-15.19c0.17-6.16,0.05-12.33,0.04-18.49c-0.01-2.92,0.66-6.09-3.18-7.51c-0.7-0.26-1.44-1.58-1.42-2.39
		c0.18-8.75-0.19-17.6,1-26.23c1.16-8.4,8.16-13.24,16.87-13.27c15.99-0.05,31.98-0.02,47.98-0.02c1.26,0,2.52,0,4.72,0
		c-6.75-7.54-14.98-10.19-23.09-12.81C58.69,32.49,49.37,33,40,34.79c-7.55,1.44-15.19,2.38-22.81,3.41
		c-2.03,0.27-4.14,0.04-6.21,0.04c-0.28-0.56-0.57-1.12-0.85-1.68c1.47-1.43,2.8-3.88,4.44-4.12c14.47-2.05,28.82-5.08,43.63-4.4
		c14.78,0.68,27.08,6.66,38.18,15.86c1.15,0.95,2.17,2.05,3.84,3.65c2.78-3.61,5.53-6.95,8.02-10.48c1.85-2.63,3.91-3.94,7.36-3.91
		c18.82,0.18,37.65,0.04,56.47,0.17c1.7,0.01,3.39,1.16,5.09,1.78c-1.15,1.38-2.42,2.67-3.41,4.16c-0.98,1.48-2.11,3.07-2.44,4.76
		c-1.98,10.08-3.64,20.23-5.62,30.31c-1.38,7.02-6.4,9.38-13.22,9.04c0,3.24,0,6.19,0,9.14c0.26,0.2,0.56,0.6,0.77,0.56
		c8.48-1.83,12.98,3.25,17.75,9.18c7.64,9.49,16.13,18.29,24.16,27.46c1.01,1.16,1.45,2.82,2.16,4.25
		c-1.67,0.75-3.33,2.14-5.02,2.16c-12.16,0.19-24.32-0.02-36.48,0.21c-2.2,0.04-5.02,0.93-6.46,2.46
		c-7.36,7.81-26.82,5.81-31.55-4.37c-0.7-1.52-3.29-3.02-5.04-3.06C100.13,131.13,87.47,131.25,74.92,131.25z M26.55,85.74
		c10.69,2.82,21.12,5.57,31.54,8.3c13.09,3.43,26.16,6.91,39.29,10.17c1.15,0.29,3.09-0.52,3.93-1.47c3.29-3.67,6.84-7.3,9.26-11.53
		c2.9-5.09,6.75-6.67,12.2-6.02c2.38,0.28,4.82,0.05,7.16,0.05c0-5.11,0-9.37,0-14c-6.42,0-12.57,0.26-18.68-0.14
		c-2.03-0.13-3.96-1.96-5.93-3.01c2.02-0.95,4-2.59,6.06-2.72c6.1-0.37,12.23-0.13,18.51-0.13c0-3.89,0-7.27,0-10.99
		c-31.12,0-61.92-0.07-92.72,0.07c-4.76,0.02-10.11,4.47-10.49,9.16C26.11,70.74,26.55,78.07,26.55,85.74z M30.4,93.12
		c0,7.88,0.05,15.13-0.01,22.38c-0.05,6.27,3.77,9.89,10.23,9.53c3.8-10.24,10-16.27,17.26-15.61c3.92,0.35,8.52,1.42,11.33,3.86
		c3.3,2.89,5,7.62,7.51,11.74c12.01,0,24.6,0,37.39,0c0.11-8.31,2.3-15.05,9.54-20.02c7.31-5.02,14.61-4.02,22.28-1.58
		c0-7.09,0-13.5,0-20.18c-1.63,0-2.95-0.03-4.26,0.01c-1.43,0.05-2.85,0.17-4.22,0.26c-0.45,7.61-0.57,7.73-7.57,7.73
		c-3,0-6-0.09-8.98,0.05c-1.06,0.05-2.45,0.34-3.08,1.05c-4.18,4.76-9.16,9.16-12,14.65c-2.92,5.64-6.3,4.44-10.55,3.31
		C74.01,104.64,52.75,99.03,30.4,93.12z M137.59,39.41c0,12.83,0,25.2,0,37.83c5.66,0,10.97,0.07,16.27-0.02
		c3.63-0.06,5.65-2.12,6.37-5.62c0.88-4.3,1.97-8.56,2.72-12.88c1.09-6.31,1.96-12.65,2.98-19.3
		C155.84,39.41,146.89,39.41,137.59,39.41z M120.24,122.41c-0.03,8.58,7.07,15.78,15.5,15.72c7.24-0.06,15.53-8.48,15.48-15.72
		c-0.05-7.37-8.15-15.1-15.89-15.17C127.65,107.18,120.27,114.6,120.24,122.41z M58.97,116.24c-7.57-0.03-11.61,3.5-11.73,10.23
		c-0.1,5.48,5.43,11.51,10.69,11.65c5.24,0.14,11.3-5.72,11.31-10.94C69.25,120.01,65.74,116.27,58.97,116.24z M156.25,130.22
		c9.09,0,17.89,0.07,26.68-0.13c0.71-0.02,2.07-2.69,1.95-2.79c-3.17-2.78-6.16-6.82-9.87-7.67c-5.61-1.29-11.74-0.34-17.41-0.34
		C157.11,123.29,156.71,126.5,156.25,130.22z M152.26,99.8c0,3.03-0.37,6.19,0.15,9.2c0.27,1.54,2.03,3.87,3.31,4
		c4.77,0.48,9.61,0.19,14.42,0.19C164.85,107.42,163.94,96.57,152.26,99.8z M109.33,47.97c7.08,0,13.8,0,20.6,0
		c0-2.99,0-5.69,0-8.35C114.53,38,112.98,38.62,109.33,47.97z"/>
	<path d="M4.31,48.9c1.65-1.79,3.32-4.19,5.89-1.33c0.67,0.75,0.14,2.58,0.17,3.92c-2.06-0.18-4.12-0.36-6.18-0.54
		C4.24,50.26,4.27,49.58,4.31,48.9z"/>
	<path d="M64.44,71.24c-3.82,0-7.67,0.27-11.44-0.15c-1.33-0.15-2.48-1.97-3.71-3.02c1.24-0.94,2.45-2.65,3.71-2.69
		c7.46-0.26,14.94-0.26,22.41,0c1.3,0.04,2.55,1.71,3.82,2.63c-1.27,1.08-2.45,2.92-3.84,3.09C71.78,71.53,68.09,71.24,64.44,71.24z
		"/>
	<path d="M97.38,67.73c-2.02,1.58-3.13,2.93-4.49,3.28c-0.62,0.16-2.63-1.82-2.47-2.48c0.28-1.22,1.53-2.78,2.66-3.07
		C94.02,65.22,95.37,66.6,97.38,67.73z"/>
	<path d="M135.56,118.03c1.28,1.86,2.73,3.07,2.55,3.93c-0.26,1.22-1.72,2.18-2.67,3.25c-1.06-0.98-2.87-1.9-2.96-2.97
		C132.38,121.19,134.03,119.99,135.56,118.03z"/>
</g>
</svg>
